<svg width="66" height="66" viewBox="0 0 66 66" fill="none" xmlns="http://www.w3.org/2000/svg">
<ellipse cx="33.2707" cy="33.3996" rx="32.3043" ry="32.3077" fill="#425C19"/>
<ellipse cx="33.7458" cy="33.6728" rx="26.2236" ry="26.2264" fill="#435D18"/>
<path d="M33.7458 7.6964C48.0906 7.69642 59.7195 19.3266 59.7195 33.673C59.7194 48.0192 48.0906 59.6495 33.7458 59.6495C19.4011 59.6495 7.77232 48.0192 7.77222 33.673C7.77222 19.3266 19.4011 7.6964 33.7458 7.6964Z" stroke="#858585" stroke-opacity="0.05" stroke-width="0.5"/>
<ellipse cx="32.3061" cy="32.3059" rx="32.3061" ry="32.3059" transform="matrix(1 0 -0.000105723 1 0.965576 1.09484)" fill="url(#paint0_linear_202_225)" fill-opacity="0.01"/>
<g filter="url(#filter0_i_202_225)">
<path d="M32.1074 1.13287C33.8933 0.819535 34.8946 0.804784 36.6805 1.13288L36.6799 6.9898C34.894 6.84102 33.8927 6.84464 32.1068 6.9898L32.1074 1.13287Z" fill="white"/>
</g>
<defs>
<filter id="filter0_i_202_225" x="32.1068" y="0.892307" width="4.57373" height="7.0975" filterUnits="userSpaceOnUse" color-interpolation-filters="sRGB">
<feFlood flood-opacity="0" result="BackgroundImageFix"/>
<feBlend mode="normal" in="SourceGraphic" in2="BackgroundImageFix" result="shape"/>
<feColorMatrix in="SourceAlpha" type="matrix" values="0 0 0 0 0 0 0 0 0 0 0 0 0 0 0 0 0 0 127 0" result="hardAlpha"/>
<feOffset dy="1"/>
<feGaussianBlur stdDeviation="0.5"/>
<feComposite in2="hardAlpha" operator="arithmetic" k2="-1" k3="1"/>
<feColorMatrix type="matrix" values="0 0 0 0 0 0 0 0 0 0 0 0 0 0 0 0 0 0 0.2 0"/>
<feBlend mode="normal" in2="shape" result="effect1_innerShadow_202_225"/>
</filter>
<linearGradient id="paint0_linear_202_225" x1="32.3061" y1="0" x2="32.3061" y2="64.6118" gradientUnits="userSpaceOnUse">
<stop stop-color="#D9D9D9"/>
<stop offset="1" stop-color="#737373"/>
</linearGradient>
</defs>
</svg>
