<svg width="66" height="65" viewBox="0 0 66 65" fill="none" xmlns="http://www.w3.org/2000/svg">
<ellipse cx="33.2706" cy="32.3997" rx="32.3043" ry="32.3077" fill="#425C19"/>
<ellipse cx="33.7457" cy="32.6728" rx="26.2236" ry="26.2264" fill="#435D18"/>
<path d="M33.7457 6.69644C48.0905 6.69646 59.7194 18.3266 59.7194 32.673C59.7193 47.0193 48.0904 58.6495 33.7457 58.6496C19.401 58.6496 7.7722 47.0193 7.77209 32.673C7.77209 18.3266 19.4009 6.69644 33.7457 6.69644Z" stroke="#858585" stroke-opacity="0.05" stroke-width="0.5"/>
<ellipse cx="32.3061" cy="32.3059" rx="32.3061" ry="32.3059" transform="matrix(1 0 -0.000105723 1 0.965332 0.0948868)" fill="url(#paint0_linear_202_225)" fill-opacity="0.01"/>
<g filter="url(#filter0_i_202_225)">
<path d="M31.0008 0.315628C32.7868 -0.0954788 33.7881 -0.114831 35.5739 0.315628L35.5731 8C33.7872 7.80479 32.786 7.80954 31 8L31.0008 0.315628Z" fill="#8D9842"/>
<path d="M31.0008 0.315628C32.7868 -0.0954788 33.7881 -0.114831 35.5739 0.315628L35.5731 8C33.7872 7.80479 32.786 7.80954 31 8L31.0008 0.315628Z" fill="#7BB542" fill-opacity="0.6"/>
</g>
<path d="M33.288 0.0498047C33.9694 0.0474762 34.6519 0.147038 35.5243 0.355469L35.5235 7.94434C33.7864 7.75681 32.7866 7.76121 31.0498 7.94434L31.0506 0.355469C31.9233 0.156092 32.6064 0.0521707 33.288 0.0498047Z" stroke="#8D9842" stroke-width="0.1"/>
<defs>
<filter id="filter0_i_202_225" x="31" y="0" width="4.57397" height="9" filterUnits="userSpaceOnUse" color-interpolation-filters="sRGB">
<feFlood flood-opacity="0" result="BackgroundImageFix"/>
<feBlend mode="normal" in="SourceGraphic" in2="BackgroundImageFix" result="shape"/>
<feColorMatrix in="SourceAlpha" type="matrix" values="0 0 0 0 0 0 0 0 0 0 0 0 0 0 0 0 0 0 127 0" result="hardAlpha"/>
<feOffset dy="1"/>
<feGaussianBlur stdDeviation="0.5"/>
<feComposite in2="hardAlpha" operator="arithmetic" k2="-1" k3="1"/>
<feColorMatrix type="matrix" values="0 0 0 0 0 0 0 0 0 0 0 0 0 0 0 0 0 0 0.2 0"/>
<feBlend mode="normal" in2="shape" result="effect1_innerShadow_202_225"/>
</filter>
<linearGradient id="paint0_linear_202_225" x1="32.3061" y1="0" x2="32.3061" y2="64.6118" gradientUnits="userSpaceOnUse">
<stop stop-color="#D9D9D9"/>
<stop offset="1" stop-color="#737373"/>
</linearGradient>
</defs>
</svg>
